<svg width="86" height="86" viewBox="0 0 86 86" fill="none" xmlns="http://www.w3.org/2000/svg">
<path d="M71.6673 62.7084C73.0477 62.709 74.3749 63.2408 75.3739 64.1933C76.3729 65.1459 76.9671 66.4463 77.0334 67.8251C77.0998 69.2038 76.6331 70.5553 75.7302 71.5993C74.8273 72.6434 73.5572 73.3001 72.1833 73.4333L71.6673 73.4584H14.334C12.9536 73.4577 11.6264 72.926 10.6274 71.9734C9.62843 71.0208 9.03419 69.7204 8.96786 68.3417C8.90152 66.9629 9.36817 65.6115 10.2711 64.5674C11.1741 63.5233 12.4441 62.8666 13.818 62.7334L14.334 62.7084H71.6673ZM71.6673 37.625C73.0929 37.625 74.46 38.1913 75.468 39.1993C76.476 40.2073 77.0423 41.5745 77.0423 43C77.0423 44.4256 76.476 45.7927 75.468 46.8007C74.46 47.8087 73.0929 48.375 71.6673 48.375H14.334C12.9084 48.375 11.5413 47.8087 10.5333 46.8007C9.52528 45.7927 8.95898 44.4256 8.95898 43C8.95898 41.5745 9.52528 40.2073 10.5333 39.1993C11.5413 38.1913 12.9084 37.625 14.334 37.625H71.6673ZM71.6673 12.5417C73.0929 12.5417 74.46 13.108 75.468 14.116C76.476 15.124 77.0423 16.4911 77.0423 17.9167C77.0423 19.3422 76.476 20.7094 75.468 21.7174C74.46 22.7254 73.0929 23.2917 71.6673 23.2917H14.334C12.9084 23.2917 11.5413 22.7254 10.5333 21.7174C9.52528 20.7094 8.95898 19.3422 8.95898 17.9167C8.95898 16.4911 9.52528 15.124 10.5333 14.116C11.5413 13.108 12.9084 12.5417 14.334 12.5417H71.6673Z" fill="black"/>
</svg>
