{
	"asset":{
		"generator":"Khronos glTF Blender I/O v4.0.44",
		"version":"2.0"
	},
	"scene":0,
	"scenes":[
		{
			"name":"Scene",
			"nodes":[
				0
			]
		}
	],
	"nodes":[
		{
			"mesh":0,
			"name":"ReUpcycler.001",
			"rotation":[
				-0.9999911785125732,
				0,
				-0.004200257360935211,
				7.549724045929906e-08
			],
			"scale":[
				8.765194070292637e-05,
				8.765194070292637e-05,
				8.765194070292637e-05
			]
		}
	],
	"materials":[
		{
			"name":"BaseRC",
			"pbrMetallicRoughness":{
				"baseColorTexture":{
					"index":0
				},
				"metallicFactor":0
			}
		}
	],
	"meshes":[
		{
			"name":"Cube.001",
			"primitives":[
				{
					"attributes":{
						"POSITION":0,
						"NORMAL":1,
						"TEXCOORD_0":2
					},
					"indices":3,
					"material":0
				}
			]
		}
	],
	"textures":[
		{
			"sampler":0,
			"source":0
		}
	],
	"images":[
		{
			"mimeType":"image/png",
			"name":"NewCycler-NewCycler.png",
			"uri":"textures/NewCycler-NewCycler_png.png"
		}
	],
	"accessors":[
		{
			"bufferView":0,
			"componentType":5126,
			"count":3211,
			"max":[
				10147.107421875,
				-45.3712043762207,
				44007.765625
			],
			"min":[
				-6920.74658203125,
				-47943.45703125,
				-41574.1640625
			],
			"type":"VEC3"
		},
		{
			"bufferView":1,
			"componentType":5126,
			"count":3211,
			"type":"VEC3"
		},
		{
			"bufferView":2,
			"componentType":5126,
			"count":3211,
			"type":"VEC2"
		},
		{
			"bufferView":3,
			"componentType":5123,
			"count":8292,
			"type":"SCALAR"
		}
	],
	"bufferViews":[
		{
			"buffer":0,
			"byteLength":38532,
			"byteOffset":0,
			"target":34962
		},
		{
			"buffer":0,
			"byteLength":38532,
			"byteOffset":38532,
			"target":34962
		},
		{
			"buffer":0,
			"byteLength":25688,
			"byteOffset":77064,
			"target":34962
		},
		{
			"buffer":0,
			"byteLength":16584,
			"byteOffset":102752,
			"target":34963
		}
	],
	"samplers":[
		{
			"magFilter":9729,
			"minFilter":9987
		}
	],
	"buffers":[
		{
			"byteLength":119336,
			"uri":"scene.bin"
		}
	]
}
