<svg width="107" height="107" viewBox="0 0 107 107" fill="none" xmlns="http://www.w3.org/2000/svg">
<rect width="107" height="107" rx="53.5" fill="#F9F3EF"/>
<path d="M53.4442 56.4394C53.5745 54.1728 54.6852 52.1724 56.3625 50.7558C58.1224 49.294 60.3422 48.5012 62.6299 48.5174C65.0382 48.5174 67.251 49.3674 68.8944 50.7558C70.5717 52.1724 71.6795 54.1728 71.807 56.4366C71.9345 58.7684 70.9995 60.9303 69.3562 62.5368C67.5462 64.2654 65.1327 65.219 62.6299 65.1944C60.1254 65.2193 57.71 64.2658 55.8979 62.5368C54.2545 60.9303 53.3167 58.7684 53.4442 56.4394ZM38.8242 61.0209C38.8412 61.9106 39.1245 63.6333 39.5495 64.9819C40.467 67.8835 42.0075 70.5495 44.063 72.7934C46.2675 75.2172 48.9582 77.149 51.9595 78.4629C55.226 79.9028 58.7598 80.6366 62.3295 80.6163C65.8987 80.6233 69.4293 79.878 72.691 78.4289C75.6902 77.1026 78.3783 75.1626 80.5819 72.7339C82.6341 70.4826 84.1731 67.8125 85.0925 64.9083C85.9766 62.0945 86.2187 59.1183 85.8009 56.1986C85.403 53.4014 84.4223 50.7189 82.9222 48.3248C81.5325 46.0976 79.7554 44.1372 77.6749 42.5363H77.6805L56.4362 26.2248L56.3795 26.1823C54.9855 25.1113 52.6424 25.1169 51.1095 26.1879C49.5597 27.2703 49.384 29.0638 50.761 30.1971L50.7582 30.1999L59.6152 37.4051L32.6135 37.4334H32.5767C30.344 37.4363 28.1992 38.9011 27.7742 40.7541C27.3379 42.6383 28.8509 44.2023 31.1742 44.2108V44.2164L44.8592 44.1881L20.4359 62.9363L20.3395 63.0071C18.036 64.7694 17.2937 67.7048 18.7444 69.5606C20.2177 71.4504 23.3485 71.4533 25.6775 69.5719L39.0055 58.6664C39.0055 58.6664 38.8072 60.1398 38.8242 61.0209ZM73.0792 65.9538C70.3309 68.7531 66.4889 70.3398 62.3267 70.3454C58.1617 70.3568 54.3169 68.7814 51.5685 65.9878C50.2708 64.6849 49.2696 63.1173 48.6332 61.3921C48.05 59.7689 47.8196 58.04 47.9574 56.3207C48.0952 54.6014 48.598 52.9312 49.4322 51.4216C50.2622 49.9294 51.3712 48.6106 52.699 47.5371C55.368 45.3611 58.7652 44.1853 62.321 44.1796C65.8797 44.1739 69.2769 45.3413 71.9487 47.5088C73.3087 48.6166 74.4137 49.9284 75.2127 51.3819C76.0398 52.8714 76.5437 54.5184 76.6917 56.2156C76.8419 57.9549 76.6108 59.706 76.0145 61.3468C75.3781 63.0746 74.3752 64.6457 73.0792 65.9538Z" fill="black"/>
</svg>
