<svg width="107" height="107" viewBox="0 0 107 107" fill="none" xmlns="http://www.w3.org/2000/svg">
<rect width="107" height="107" rx="53.5" fill="#F9F3EF"/>
<g clip-path="url(#clip0_178_3322)">
<path fill-rule="evenodd" clip-rule="evenodd" d="M53.4002 20C34.9307 20 20 35.125 20 53.8367C20 68.7939 29.5666 81.4549 42.8381 85.9361C44.4974 86.2729 45.1052 85.208 45.1052 84.3122C45.1052 83.5277 45.0505 80.8389 45.0505 78.0374C35.7594 80.0545 33.8246 74.0038 33.8246 74.0038C32.3314 70.0823 30.1191 69.0744 30.1191 69.0744C27.0781 67.0016 30.3406 67.0016 30.3406 67.0016C33.7138 67.2257 35.4838 70.4749 35.4838 70.4749C38.4694 75.6284 43.2804 74.1722 45.2159 73.2757C45.4921 71.0909 46.3775 69.5784 47.3175 68.7382C39.9072 67.9538 32.1106 65.0409 32.1106 52.0437C32.1106 48.3463 33.4369 45.3213 35.5385 42.9687C35.2069 42.1286 34.0454 38.6546 35.8708 34.0051C35.8708 34.0051 38.6909 33.1086 45.0498 37.4783C47.7722 36.7376 50.5799 36.3609 53.4002 36.3577C56.2203 36.3577 59.0952 36.7503 61.7499 37.4783C68.1094 33.1086 70.9296 34.0051 70.9296 34.0051C72.755 38.6546 71.5927 42.1286 71.2611 42.9687C73.4181 45.3213 74.6898 48.3463 74.6898 52.0437C74.6898 65.0409 66.8932 67.8974 59.4274 68.7382C60.6444 69.8025 61.6945 71.8189 61.6945 75.0124C61.6945 79.5499 61.6398 83.1916 61.6398 84.3115C61.6398 85.208 62.2483 86.2729 63.9069 85.9367C77.1783 81.4542 86.745 68.7939 86.745 53.8367C86.7997 35.125 71.8142 20 53.4002 20Z" fill="#24292F"/>
</g>
<defs>
<clipPath id="clip0_178_3322">
<rect width="67" height="66" fill="white" transform="translate(20 20)"/>
</clipPath>
</defs>
</svg>
