<svg width="136" height="139" viewBox="0 0 136 139" fill="none" xmlns="http://www.w3.org/2000/svg">
<path d="M15.4133 0C11.3255 0 7.40502 1.61661 4.51446 4.4942C1.6239 7.37179 0 11.2746 0 15.3442C0 19.4137 1.6239 23.3165 4.51446 26.1941C7.40502 29.0717 11.3255 30.6883 15.4133 30.6883C19.5012 30.6883 23.4216 29.0717 26.3122 26.1941C29.2028 23.3165 30.8267 19.4137 30.8267 15.3442C30.8267 11.2746 29.2028 7.37179 26.3122 4.4942C23.4216 1.61661 19.5012 0 15.4133 0ZM0.906667 43.3247C0.666204 43.3247 0.435589 43.4198 0.265556 43.589C0.0955229 43.7583 0 43.9879 0 44.2273V138.097C0 138.596 0.406187 139 0.906667 139H29.92C30.1605 139 30.3911 138.905 30.5611 138.736C30.7311 138.566 30.8267 138.337 30.8267 138.097V44.2273C30.8267 43.9879 30.7311 43.7583 30.5611 43.589C30.3911 43.4198 30.1605 43.3247 29.92 43.3247H0.906667ZM48.0533 43.3247C47.8129 43.3247 47.5823 43.4198 47.4122 43.589C47.2422 43.7583 47.1467 43.9879 47.1467 44.2273V138.097C47.1467 138.596 47.5529 139 48.0533 139H77.0667C77.3071 139 77.5377 138.905 77.7078 138.736C77.8778 138.566 77.9733 138.337 77.9733 138.097V87.552C77.9733 83.9612 79.4062 80.5175 81.9567 77.9785C84.5072 75.4394 87.9664 74.013 91.5733 74.013C95.1803 74.013 98.6395 75.4394 101.19 77.9785C103.74 80.5175 105.173 83.9612 105.173 87.552V138.097C105.173 138.596 105.58 139 106.08 139H135.093C135.334 139 135.564 138.905 135.734 138.736C135.904 138.566 136 138.337 136 138.097V75.8543C136 58.3295 120.695 44.6244 103.179 46.2058C97.7594 46.7007 92.4512 48.0358 87.4462 50.1628L77.9733 54.2064V44.2273C77.9733 43.9879 77.8778 43.7583 77.7078 43.589C77.5377 43.4198 77.3071 43.3247 77.0667 43.3247H48.0533Z" fill="#D9D9D9"/>
</svg>
