<svg width="107" height="107" viewBox="0 0 107 107" fill="none" xmlns="http://www.w3.org/2000/svg">
<rect width="107" height="107" rx="53.5" fill="#F9F3EF"/>
<path d="M55.706 35.198L64.7302 40.4062C65.0547 40.589 65.0663 41.0961 64.7302 41.279L54.0071 47.472C53.8543 47.5618 53.6802 47.6091 53.5029 47.6091C53.3256 47.6091 53.1516 47.5618 52.9987 47.472L42.2758 41.279C41.9457 41.102 41.9397 40.5831 42.2758 40.4062L51.2942 35.1978V25L28.2676 38.2945V64.8834L37.0971 59.7876V49.3713C37.0912 48.9996 37.5277 48.7343 37.8524 48.9348L48.575 55.1278C48.7288 55.216 48.8566 55.3431 48.9456 55.4964C49.0347 55.6496 49.0818 55.8236 49.0823 56.0009V68.381C49.0883 68.7527 48.6517 69.018 48.3273 68.8176L39.3033 63.6094L30.4735 68.7055L53.5001 82L76.5266 68.7055L67.6969 63.6094L58.6728 68.8176C58.3543 69.0123 57.9059 68.7587 57.9178 68.381V56.0009C57.9178 55.6292 58.1244 55.2988 58.4251 55.1278L69.148 48.9348C69.4662 48.74 69.9146 48.988 69.903 49.3713V59.7876L78.7325 64.8834V38.2945L55.706 25V35.198Z" fill="black"/>
</svg>
