<svg width="107" height="107" viewBox="0 0 107 107" fill="none" xmlns="http://www.w3.org/2000/svg">
<rect width="107" height="107" rx="53.5" fill="#F9F3EF"/>
<g clip-path="url(#clip0_111_870)">
<path d="M48.9275 57.7825H20C20.001 59.4979 20.3403 61.1963 20.9985 62.7804C21.6567 64.3645 22.6209 65.8032 23.8358 67.0143C25.0508 68.2253 26.4926 69.1847 28.0789 69.8378C29.6651 70.4908 31.3646 70.8246 33.08 70.82H38.405V75.9625C38.405 79.4194 39.7779 82.7348 42.2218 85.1796C44.6658 87.6245 47.9806 88.9987 51.4375 89V60.295C51.4375 59.6286 51.1728 58.9896 50.7016 58.5184C50.2304 58.0472 49.5914 57.7825 48.925 57.7825H48.9275ZM63.235 43.3925H34.34C34.3407 46.8498 35.7145 50.1653 38.1595 52.6098C40.6044 55.0543 43.9202 56.4275 47.3775 56.4275H52.7V61.5725C52.7026 65.0292 54.0772 68.3436 56.5217 70.7876C58.9662 73.2316 62.2808 74.6055 65.7375 74.6075V45.895C65.7375 45.2313 65.4738 44.5948 65.0045 44.1255C64.5352 43.6562 63.8987 43.3925 63.235 43.3925ZM77.5325 29H48.6375C48.6375 32.4578 50.0111 35.7739 52.4561 38.2189C54.9011 40.6639 58.2172 42.0375 61.675 42.0375H66.9975V47.18C67.0001 50.63 68.3701 53.9383 70.8072 56.3801C73.2444 58.8219 76.55 60.1982 80 60.2075V31.5125C80.0027 30.8531 79.745 30.2193 79.283 29.7488C78.8209 29.2783 78.1919 29.0092 77.5325 29Z" fill="black"/>
</g>
<defs>
<clipPath id="clip0_111_870">
<rect width="60" height="60" fill="white" transform="translate(20 29)"/>
</clipPath>
</defs>
</svg>
