<svg width="107" height="107" viewBox="0 0 107 107" fill="none" xmlns="http://www.w3.org/2000/svg">
<rect width="107" height="107" rx="53.5" fill="#F9F3EF"/>
<path fill-rule="evenodd" clip-rule="evenodd" d="M102 47.8005C102 48.8599 101.179 49.6294 100.182 49.6294C99.1853 49.6294 98.3785 48.8694 98.3785 47.8147C98.3785 46.7601 99.2001 46 100.196 46C101.193 46 102 46.7506 102 47.8005ZM101.668 47.81C101.668 46.9454 100.989 46.3183 100.192 46.3183C99.3947 46.3183 98.7013 46.9454 98.7013 47.8147C98.7013 48.6841 99.3799 49.3064 100.178 49.3064C100.975 49.3064 101.668 48.6793 101.668 47.81ZM100.6 47.8765L101.103 48.7268H100.704L100.282 47.905H99.7839V48.7268H99.4469V46.8266H100.41C100.771 46.8266 101.027 47.0451 101.027 47.3444C101.027 47.6009 100.856 47.8052 100.6 47.8717V47.8765ZM99.7884 47.6152H100.382C100.571 47.6152 100.704 47.5107 100.704 47.3587C100.704 47.2256 100.586 47.1259 100.41 47.1259H99.7839V47.6152H99.7884ZM12.7778 55.9146C16.0614 55.9146 18.1922 53.8018 18.1934 51.0049C18.1922 48.2032 16.0614 46.1616 12.7778 46.1616H6V61.7151H9.48384V55.9146H12.7778ZM12.2462 48.7792C13.8447 48.7792 14.7749 49.7993 14.7761 51.0002C14.7749 52.2437 13.8447 53.2875 12.2462 53.2875H9.48384V48.7792H12.2462ZM32.7316 62C36.3246 62 38.6124 59.5819 38.6124 56.0475C38.6124 52.5605 36.3056 50.1378 32.7316 50.1378C29.1575 50.1378 26.8698 52.5178 26.8698 56.0475C26.8698 59.5772 29.1386 62 32.7316 62ZM32.7269 59.4917C30.9517 59.4917 29.9312 58.0475 29.9312 56.0475C29.9312 54.0903 30.928 52.6461 32.7269 52.6461C34.5257 52.6461 35.5462 54.0475 35.5462 56.0475C35.5462 58.0475 34.502 59.4917 32.7269 59.4917ZM45.2929 61.9572C41.9623 61.9561 39.9033 59.4909 39.9033 56.1567C39.9033 52.8218 41.968 50.3563 45.2953 50.3563C48.1573 50.3563 49.9562 52.0902 50.3359 54.4465H48.4706C48.1573 53.0023 47.1605 51.9145 45.2953 51.9145C43.0075 51.9145 41.6785 53.715 41.6785 56.1567C41.6785 58.5986 43.0122 60.399 45.2953 60.399C47.2697 60.399 48.3139 59.1971 48.5797 57.6009H50.3976C50.1081 60.1086 48.2912 61.9562 45.2929 61.9572ZM63.8108 50.3563C60.5928 50.3563 58.419 52.8028 58.419 56.2232L58.4237 56.228C58.4237 59.5202 60.4457 61.9619 63.7729 61.9619C66.2789 61.9619 68.1443 60.5368 68.766 58.1615H66.7441C66.2125 59.7577 64.969 60.4038 63.7254 60.4038C61.7936 60.4038 60.4599 58.8693 60.327 56.627V56.5368H68.8515V56.1567C68.8515 52.8218 67.0289 50.3563 63.8108 50.3563ZM63.7919 51.9097C65.809 51.9097 66.9672 53.2874 67.0099 55.1544H60.3745C60.7067 53.1544 61.8838 51.9097 63.7919 51.9097ZM79.5783 54.4703V61.7149H77.803V59.962H77.7604C77.2288 60.8076 75.8711 61.829 73.8541 61.829C71.6806 61.829 70.2375 60.608 70.2375 58.6508C70.2375 56.5415 71.8133 54.9644 76.2751 54.9644H77.8081V54.475C77.8081 52.8978 76.8113 51.9192 75.188 51.9192C73.655 51.9192 72.6343 52.7649 72.5492 54.1188H70.7307C70.7978 51.81 72.506 50.3658 75.1925 50.3658C77.879 50.3658 79.5879 51.943 79.5879 54.475L79.5783 54.4703ZM77.803 57.4251V56.38H76.27C72.9855 56.38 72.0079 57.3586 72.0079 58.6033C72.0079 59.7149 72.8714 60.3562 74.2479 60.3562C76.1991 60.3562 77.7985 58.9549 77.7985 57.4251H77.803ZM94.458 50.3563C91.2399 50.3563 89.0664 52.8028 89.0664 56.2232L89.0709 56.228C89.0709 59.5202 91.093 61.9619 94.42 61.9619C96.926 61.9619 98.7916 60.5368 99.4134 58.1615H97.3913C96.8597 59.7577 95.6166 60.4038 94.3729 60.4038C92.441 60.4038 91.1072 58.8693 90.9744 56.627V56.5368H99.4991V56.1567C99.4991 52.8218 97.6761 50.3563 94.458 50.3563ZM94.4393 51.9097C96.4563 51.9097 97.6143 53.2874 97.6574 55.1544H91.0221C91.3539 53.1544 92.5313 51.9097 94.4393 51.9097ZM58.1389 50.5606C56.1976 50.7411 54.7121 51.5534 53.9384 53.3159V50.6081H52.1206V61.7149H53.9384V56.9406C53.9384 53.8907 55.3386 52.5178 58.1389 52.5416V50.5606ZM22.4225 53.2684C23.0632 51.4014 24.4064 50.5416 26.3999 50.3563V50.361V53.5059C23.4666 53.4252 22.4225 54.7316 22.4225 57.4679V61.7102H19.2946V50.4228H22.4225V53.2684ZM88.663 52.1568V52.1615L88.6675 52.1568H88.663ZM88.663 50.6081V52.1568H84.6046V58.0427C84.6046 59.4869 85.3785 60.266 86.8451 60.266C87.2814 60.266 87.7847 60.209 88.3259 60.0237V61.6389C87.8845 61.7862 87.3858 61.8669 86.8451 61.8669C84.3578 61.8669 82.7822 60.4038 82.7822 58.0475V52.1615H80.4514V50.6128H81.1686H81.42H82.0747C82.4639 50.6128 82.7822 50.2945 82.7822 49.905V47.0499H84.6V50.6081H88.663Z" fill="black"/>
</svg>
