<svg width="138" height="82" viewBox="0 0 138 82" fill="none" xmlns="http://www.w3.org/2000/svg">
<g clip-path="url(#clip0_177_3275)">
<path fill-rule="evenodd" clip-rule="evenodd" d="M68.7 0C50.4 0 39 9.1 34.4 27.3C41.3 18.2 49.3 14.8 58.5 17C63.7 18.3 67.5 22.1 71.6 26.2C78.3 33.1 86.1 41 103.1 41C121.4 41 132.9 31.9 137.5 13.7C130.6 22.8 122.6 26.2 113.5 23.9C108.3 22.6 104.5 18.8 100.4 14.7C93.6 7.9 85.8 0 68.7 0ZM34.4 41C16 41 4.6 50.1 0 68.3C6.9 59.2 14.9 55.8 24.1 58C29.3 59.3 33.1 63.1 37.2 67.2C43.9 74.1 51.7 82 68.7 82C87 82 98.5 72.9 103.1 54.7C96.2 63.8 88.2 67.2 79 64.9C73.8 63.6 70 59.8 65.9 55.7C59.2 48.9 51.4 41 34.4 41Z" fill="white"/>
</g>
<defs>
<clipPath id="clip0_177_3275">
<rect width="137.5" height="82" fill="white"/>
</clipPath>
</defs>
</svg>
