<svg width="850" height="77" viewBox="0 0 850 77" fill="none" xmlns="http://www.w3.org/2000/svg">
<path fill-rule="evenodd" clip-rule="evenodd" d="M839.527 33.9554C840.031 14.6095 819.575 -0.333035 795.722 3.63095C789.642 4.96974 784.972 8.88387 782.966 13.3972C781.188 17.399 781.463 21.9246 784.825 25.7929C784.318 24.6298 784.036 23.3452 784.036 21.9949C784.036 16.7482 788.289 12.4949 793.536 12.4949C798.783 12.4949 803.036 16.7482 803.036 21.9949C803.036 22.5765 802.984 23.1459 802.883 23.6987C802.693 27.4477 800.508 30.357 797.408 31.8067C793.445 33.6596 788.174 33.0575 784.019 29.2533C778.519 24.2182 777.757 17.733 780.225 12.1789C782.657 6.70637 788.174 2.20836 795.118 0.692114L795.155 0.684194L795.191 0.678078C804.574 -0.888706 813.648 0.329149 821.298 3.61419C837.526 9.54793 845.583 19.53 848.235 29.4188C851.389 41.1826 846.921 53.1599 841.215 60.4216L841.202 60.4386L841.188 60.4551C829.029 75.0457 786.456 91.7031 710.548 51.3273C705.118 49.3456 699.623 47.2954 694.072 45.2244L694.07 45.2235L694.064 45.2215C687.179 42.6526 680.208 40.0518 673.169 37.51C637.889 24.7691 600.774 13.4451 563.578 14.4943C553.747 14.7715 537.288 16.5976 523.338 21.4686C516.361 23.905 510.116 27.0677 505.639 31.0938C501.205 35.0805 498.553 39.8617 498.536 45.654C498.573 46.1289 498.625 46.6017 498.692 47.0712C498.789 47.6128 498.893 48.1529 499.005 48.691L498.987 48.6947C499.806 52.4161 501.584 55.8437 504.214 58.4144C507.531 61.657 512.284 63.617 518.449 63.0261C519.105 62.9632 519.779 62.8751 520.471 62.7605C522.904 62.2204 525.022 60.8451 526.562 59.0577C525.104 59.9685 523.382 60.4949 521.536 60.4949C516.289 60.4949 512.036 56.2416 512.036 50.9949C512.036 45.7482 516.289 41.4949 521.536 41.4949C524.093 41.4949 526.414 42.5054 528.122 44.1488C532.295 47.4792 532.978 52.3603 531.451 56.5788C529.898 60.8681 526.033 64.6167 521.075 65.6992C520.297 65.8691 519.502 65.9777 518.698 66.016C511.698 66.677 506.078 64.4316 502.117 60.5598C498.591 57.114 496.442 52.4448 495.731 47.5523C494.5 40.6088 494.449 32.9135 498.753 25.8112C503.419 18.1125 512.986 11.4611 530.672 7.03965C540.004 4.7067 610.396 -7.01841 708.257 46.6799C709.433 47.3247 710.6 47.9558 711.759 48.5734C733.084 56.3548 753.21 63.0079 771.752 65.7078C785.193 67.6649 798.162 67.0795 811.332 63.7613C818.984 61.8334 825.937 58.5565 831.013 53.6934C836.056 48.8613 839.306 42.4121 839.527 33.9554Z" fill="white"/>
<path fill-rule="evenodd" clip-rule="evenodd" d="M9.75864 33.9554C9.25366 14.6095 29.7097 -0.333035 53.5628 3.63095C59.6428 4.96974 64.313 8.88387 66.3187 13.3972C68.0971 17.399 67.8221 21.9246 64.4597 25.7929C64.9676 24.6298 65.2493 23.3452 65.2493 21.9949C65.2493 16.7482 60.996 12.4949 55.7493 12.4949C50.5026 12.4949 46.2493 16.7482 46.2493 21.9949C46.2493 22.5765 46.3016 23.1459 46.4017 23.6987C46.5919 27.4477 48.7771 30.357 51.8775 31.8067C55.8401 33.6596 61.1113 33.0575 65.2663 29.2533C70.7657 24.2182 71.5284 17.733 69.0602 12.1789C66.6282 6.70637 61.1116 2.20836 54.1668 0.692114L54.1305 0.684194L54.0939 0.678078C44.7107 -0.888706 35.637 0.329149 27.9869 3.61419C11.7588 9.54793 3.7023 19.53 1.05051 29.4188C-2.104 41.1826 2.36417 53.1599 8.06982 60.4216L8.08316 60.4386L8.09695 60.4551C20.2557 75.0457 62.8288 91.7031 138.737 51.3273C144.167 49.3456 149.662 47.2954 155.213 45.2244L155.215 45.2235L155.221 45.2215C162.106 42.6526 169.077 40.0518 176.116 37.51C211.397 24.7691 248.511 13.4451 285.707 14.4943C295.538 14.7715 311.997 16.5976 325.947 21.4686C332.925 23.905 339.169 27.0677 343.647 31.0938C348.08 35.0805 350.732 39.8617 350.749 45.654C350.712 46.1289 350.66 46.6017 350.593 47.0712C350.496 47.6128 350.392 48.1529 350.28 48.691L350.299 48.6947C349.479 52.4161 347.702 55.8437 345.071 58.4144C341.754 61.657 337.001 63.617 330.836 63.0261C330.18 62.9632 329.506 62.8751 328.814 62.7605C326.381 62.2204 324.263 60.8451 322.723 59.0577C324.181 59.9685 325.904 60.4949 327.749 60.4949C332.996 60.4949 337.249 56.2416 337.249 50.9949C337.249 45.7482 332.996 41.4949 327.749 41.4949C325.192 41.4949 322.871 42.5054 321.163 44.1488C316.99 47.4792 316.307 52.3603 317.834 56.5788C319.388 60.8681 323.252 64.6167 328.21 65.6992C328.988 65.8691 329.783 65.9777 330.587 66.016C337.588 66.677 343.207 64.4316 347.168 60.5598C350.694 57.114 352.843 52.4448 353.554 47.5523C354.786 40.6088 354.837 32.9135 350.532 25.8112C345.866 18.1125 336.299 11.4611 318.613 7.03965C309.281 4.7067 238.889 -7.01841 141.028 46.6799C139.852 47.3247 138.685 47.9558 137.527 48.5734C116.201 56.3548 96.0749 63.0079 77.5332 65.7078C64.0926 67.6649 51.1231 67.0795 37.9531 63.7613C30.3015 61.8334 23.3486 58.5565 18.2726 53.6934C13.2289 48.8613 9.97937 42.4121 9.75864 33.9554Z" fill="white"/>
</svg>
