<svg width="72" height="72" viewBox="0 0 72 72" fill="none" xmlns="http://www.w3.org/2000/svg">
<path d="M15.8784 15.879C16.4409 15.3166 17.2039 15.0006 17.9994 15.0006C18.7949 15.0006 19.5578 15.3166 20.1204 15.879L35.9994 31.758L51.8784 15.879C52.1551 15.5925 52.4861 15.3639 52.8521 15.2067C53.2182 15.0495 53.6118 14.9667 54.0102 14.9632C54.4085 14.9598 54.8035 15.0357 55.1722 15.1865C55.5409 15.3374 55.8759 15.5601 56.1575 15.8418C56.4392 16.1235 56.662 16.4584 56.8128 16.8271C56.9637 17.1958 57.0396 17.5909 57.0361 17.9892C57.0326 18.3875 56.9499 18.7812 56.7927 19.1472C56.6354 19.5132 56.4069 19.8443 56.1204 20.121L40.2414 36L56.1204 51.879C56.6668 52.4448 56.9692 53.2026 56.9624 53.9892C56.9555 54.7758 56.64 55.5282 56.0838 56.0845C55.5276 56.6407 54.7751 56.9562 53.9886 56.963C53.202 56.9699 52.4442 56.6675 51.8784 56.121L35.9994 40.242L20.1204 56.121C19.5546 56.6675 18.7967 56.9699 18.0102 56.963C17.2236 56.9562 16.4711 56.6407 15.9149 56.0845C15.3587 55.5282 15.0432 54.7758 15.0363 53.9892C15.0295 53.2026 15.3319 52.4448 15.8784 51.879L31.7574 36L15.8784 20.121C15.3159 19.5584 15 18.7955 15 18C15 17.2045 15.3159 16.4416 15.8784 15.879Z" fill="black"/>
</svg>
