<svg width="30" height="37" viewBox="0 0 30 37" fill="none" xmlns="http://www.w3.org/2000/svg">
<path d="M11.4727 0C11.5133 8.13569 16.6674 14.7148 23.0195 14.7148C23.044 14.7148 23.0684 14.7131 23.0928 14.7129V14.7158C16.7501 14.7678 11.6212 21.3784 11.6211 29.5264C11.6211 29.5576 11.6209 29.589 11.6211 29.6201H11.6201C11.6203 29.589 11.6211 29.5576 11.6211 29.5264C11.621 21.3464 6.45134 14.7152 0.0742188 14.7148C0.0496115 14.7148 0.024571 14.7156 0 14.7158L0.000976562 14.7129C6.31817 14.6606 11.4302 8.10318 11.4707 0H11.4727Z" fill="#363636"/>
<path d="M22.832 18.7299C22.8573 23.7481 26.036 27.8058 29.9541 27.806C29.969 27.806 29.9841 27.8042 29.999 27.8041V27.807C26.0876 27.8407 22.9249 31.9177 22.9248 36.9427C22.9248 36.9619 22.9257 36.9812 22.9258 37.0004C22.9245 37.0004 22.9232 37.0004 22.9219 37.0004C22.922 36.9812 22.9238 36.9619 22.9238 36.9427C22.9238 31.897 19.7354 27.8063 15.8018 27.806C15.7866 27.806 15.771 27.8069 15.7559 27.807L15.7568 27.8041C19.6533 27.7715 22.8049 23.728 22.8301 18.7299H22.832Z" fill="#363636"/>
</svg>
