<svg width="533" height="696" viewBox="0 0 533 696" fill="none" xmlns="http://www.w3.org/2000/svg">
<path d="M199.373 619.428C202.21 621.688 204.218 624.763 206.722 627.365C207.116 627.774 207.162 627.05 207.771 627.625C210.016 629.746 214.204 633.087 215.312 635.794C216.199 637.963 213.761 636.596 214.673 638.013C215.114 638.695 216.977 638.005 217.154 638.097C218.894 638.985 219.273 640.458 220.649 641.453C220.934 641.658 221.195 640.9 221.432 641.08C222.244 641.692 222.778 642.664 223.512 643.292C223.842 643.573 224.172 643.119 224.428 643.427C225.044 644.159 225.486 644.913 225.79 645.933C225.815 646.026 224.929 646.125 225.416 646.633C226.207 647.455 226.865 648.809 228.176 649.342C228.566 649.499 229.461 648.598 229.451 649.81C229.449 650.064 228.23 651.001 229.845 650.735C230.115 650.692 232.526 650.557 232.307 651.938C232.249 652.302 231.769 653.573 232.241 653.759C232.309 653.781 232.601 653.114 232.926 653.336C234.062 654.128 235.04 655.179 236.196 656.003C236.506 656.222 236.596 655.327 237.042 655.669C238.269 656.611 239.522 658.077 240.447 659.281C240.787 659.727 240.106 659.88 240.091 659.953C239.837 661.146 241.083 660.412 241.295 660.503C242.595 661.085 242.87 662.266 243.876 663C244.152 663.204 244.443 662.559 244.533 662.563C245.441 662.636 244.233 663.129 244.461 663.533C245.096 664.669 246.131 665.598 247.095 666.414C247.449 666.713 247.613 665.798 247.925 666.073C249.783 667.689 251.567 669.522 252.994 671.498C253.261 671.871 252.644 672.1 252.617 672.263C252.423 673.395 254.004 673.129 254.249 673.193C255.356 673.481 255.268 674.128 255.967 674.669C257.897 676.158 259.871 678.063 261.722 679.974C263.312 678.652 264.868 677.295 266.459 675.703C266.686 675.478 265.91 675.123 266.098 674.921C268.559 672.338 271.322 670.156 273.763 667.54C273.963 667.327 273.143 667.071 273.448 666.71C274.072 665.966 274.988 665.156 275.861 664.661C276.286 664.419 276.264 665.324 276.683 665.071C277.659 664.481 278.565 663.7 279.315 662.827C279.634 662.455 278.574 662.401 279.027 661.96C282.114 658.945 285.107 655.941 288.959 653.671C289.224 653.517 290.482 654.468 290.739 653.816C290.478 653.469 290.127 653.101 289.825 652.75C294.223 648.26 299.116 644.386 303.755 640.125C303.95 639.946 303.051 639.66 303.426 639.309C305.599 637.276 307.544 635.127 310.321 633.635C310.596 633.488 311.479 634.648 311.976 633.879C312.062 633.742 312.904 632.681 312.94 632.214C312.941 632.147 312.3 631.821 312.6 631.511C314.355 629.714 316.375 628.022 318.481 626.604C318.822 626.376 319.005 627.195 319.252 627.038C321.001 625.915 322.241 623.991 324.11 623.128C325.19 622.632 325.714 623.484 326.7 623.995C326.804 623.886 326.931 623.773 327.088 623.658C327.281 623.518 327.259 623.859 327.263 624.212C327.453 624.199 327.871 623.903 328.284 624.064C328.393 623.746 328.454 623.392 328.59 623.101L329.637 622.021L330.508 623.379C330.794 623.605 330.978 623.908 330.873 624.437C330.847 624.562 330.353 624.562 329.825 624.514L329.938 624.531C329.94 624.681 329.93 624.785 329.911 624.815L330 624.968L329.591 625.354C330.469 626.379 331.311 627.517 332.341 628.44C332.649 628.716 333.132 627.649 333.35 628.815C333.362 628.896 333.019 629.674 333.109 630.052C333.172 630.315 333.847 630.677 333.853 631.083C333.857 631.489 333.22 631.254 333.13 631.822C333.043 632.393 333.755 632.858 333.16 633.553C331.775 635.164 329.598 636.892 327.844 638.1C327.295 638.478 327.229 637.922 326.836 638.169C326.068 638.653 325.616 639.383 324.833 639.835C324.572 639.983 324.346 639.215 324.083 639.382C322.648 640.303 321.619 641.523 320.28 642.577C313.719 647.743 307.585 653.158 301.24 658.698C301.026 659.216 300.804 659.73 300.503 660.144C300.218 660.015 299.958 659.957 299.718 659.952C298.567 660.858 297.316 661.786 296.173 662.767C296.274 662.89 296.347 663.003 296.331 663.097C296.217 663.734 295.782 663.753 295.231 663.616C294.873 663.959 294.532 664.309 294.22 664.667C293.999 664.923 294.574 665.241 294.562 665.323C294.374 666.586 293.749 665.438 293.157 665.765C293.109 665.791 293.061 665.819 293.014 665.846C292.943 666.205 292.838 666.165 292.702 666.026C291.657 666.648 290.658 667.393 289.729 668.195C289.644 668.658 289.452 669.142 288.795 669.045L288.792 669.044C288.433 669.386 288.087 669.734 287.757 670.083C287.892 670.512 288.064 670.962 288.021 671.345C287.912 672.289 286.238 672.151 285.824 672.046C285.724 672.021 285.644 671.993 285.579 671.967C285.293 672.21 284.992 672.505 284.731 672.758C284.675 673.176 284.393 673.426 283.884 673.482C283.387 673.87 283.211 674.041 282.641 674.57C282.099 675.068 281.428 675.545 280.785 676.061C280.544 676.367 280.227 676.62 279.881 676.851C279.736 676.993 279.598 677.14 279.469 677.291C279.28 677.517 280.029 677.748 279.769 678.153C279.507 678.558 278.568 679.365 278.154 679.534C277.991 679.601 277.855 679.561 277.742 679.487C277.24 680.013 276.552 680.265 276.088 680.838C276.072 680.918 276.059 680.975 276.044 680.995C276.014 681.036 275.981 681.075 275.95 681.115C276.057 681.246 276.482 681.536 276.308 681.712C274.748 683.295 273.034 684.296 271.339 685.877C270.52 686.642 269.328 688.297 268.431 689.036C267.605 689.72 266.512 690.312 265.507 690.919C264.993 691.444 264.482 691.952 263.97 692.42C263.856 692.524 263.742 692.627 263.628 692.728L261.253 695.179L260.763 694.744L260.736 694.768L260.471 694.486L258.445 692.692C257.787 692.013 257.187 691.342 256.598 690.679C255.99 690.462 255.681 690.923 255.121 690.93C253.813 690.949 253.789 688.62 253.809 688.28C253.81 688.27 254.411 688.681 254.497 688.394C254.382 688.276 254.266 688.157 254.147 688.039C253.977 688.149 253.815 688.279 253.809 688.28C253.813 688.185 253.579 687.863 253.283 687.512C253.109 687.677 252.91 687.976 252.745 687.824C252.37 687.479 251.999 687.131 251.631 686.781C251.575 686.828 251.531 686.857 251.506 686.842C249.243 685.475 247.273 683.8 245.614 681.759C245.591 681.717 246.157 681.232 246.095 681.141C245.239 679.851 243.911 679.829 242.641 679.348C241.37 678.867 240.786 678.048 241.144 676.619C240.636 676.271 240.217 675.588 239.897 674.937C239.548 674.539 239.174 674.115 238.815 673.673C238.43 673.78 238.029 674.113 237.987 674.097C235.82 673.269 235.511 671.817 234.013 670.185C233.302 669.407 231.659 668.105 230.731 667.426C229.997 666.891 229.843 666.271 229.098 665.849C228.997 665.793 228.631 666.332 228.589 666.326C227.389 666.235 228.802 665.415 228.861 665.08C229.075 663.865 229.147 663.176 227.962 662.697C227.689 662.586 225.541 663.657 225.091 663.406C224.509 663.075 225.249 662.662 224.626 662.331C224.573 662.303 224.232 662.67 223.947 662.363C222.619 660.941 221.301 659.257 219.816 657.887C219.615 657.7 219.316 658.515 219.016 658.252C217.608 657.018 216.157 655.57 215.108 654.034C214.852 653.655 215.441 653.451 215.486 653.265C215.753 652.131 214.133 652.584 214.014 652.506C211.133 650.685 210.216 647.964 207.34 646.046C207.181 645.944 205.076 646.069 205.548 644.669C205.578 644.575 206.078 643.156 205.028 643.44C204.962 643.462 204.753 644.233 204.313 643.707C203.872 643.18 202.756 642.751 202.619 641.542C202.575 641.16 203.018 639.693 201.625 639.855C201.518 639.873 198.84 640.673 199.666 639.12C199.804 638.865 201.111 637.635 199.711 637.558C199.442 637.545 199.427 638.088 198.87 637.896C198.016 637.603 197.573 636.505 196.296 636.379C196.071 636.359 194.689 636.713 194.902 635.634C194.936 635.465 195.481 635.159 195.301 634.891C194.446 633.615 193.039 632.807 192.232 631.448C191.946 630.968 192.817 630.465 192.594 629.887C192.483 629.6 192.269 629.216 191.992 628.891L193.82 628.65C193.264 628.057 192.719 627.454 192.192 626.832L190.743 625.549L191.77 623.638C191.991 623.337 192.218 623.039 192.449 622.743L193.875 620.091L196.293 622.236C196.96 623.07 197.594 623.938 198.184 624.851C198.232 624.923 197.628 625.328 197.727 625.469C198.66 626.813 199.163 626.438 200.268 626.201L199.373 619.428ZM237.479 670.208C237.01 670.477 236.493 671.206 237.115 671.273C237.126 671.273 237.178 671.232 237.252 671.168C237.045 670.59 237.476 670.414 237.479 670.208ZM261.381 117.517C261.466 117.347 263.957 117.131 264.322 117.783C264.687 118.436 263.909 119.425 264.479 120.33C264.613 120.545 266.946 121.773 267.088 121.941C268.193 123.253 264.472 123.439 264.267 123.509C262.061 124.296 264.574 125.797 264.748 126.193C265.544 128.001 265.021 129.537 265.589 131.049C265.956 132.038 268.393 132.135 268.319 132.911C268.072 135.493 264.673 136.395 267.621 138.827C268.25 139.349 270.914 138.831 268.819 140.7C268.685 140.82 266.772 142.206 267.982 143.007C268.135 143.108 268.912 143.105 268.978 143.238C269.399 144.127 268.781 144.721 269.077 145.691C269.373 146.66 269.815 147.827 269.552 148.934C269.394 149.601 267.947 150.456 267.593 150.776C266.573 151.677 268.245 152.645 267.01 153.203C265.768 153.766 263.882 152.666 263.08 154.143C265.097 154.198 267.168 154.323 269.197 154.411C269.126 157.649 268.473 160.834 268.562 164.082C268.576 164.484 269.66 164.074 269.702 164.505C269.874 166.326 269.101 167.917 269.409 169.806C269.652 171.268 270.801 172.872 271.09 174.401C268.782 175.335 269.564 177.603 269.354 179.251C269.28 179.828 268.664 179.79 268.463 180.2C267.72 181.748 269.758 181.024 270.08 181.448C271.45 183.269 266.833 183.426 266.947 185.573C266.958 185.69 269.413 187.078 269.566 187.27C270.565 188.487 268.709 187.471 268.527 188.233C268.195 189.623 267.608 190.59 268.328 192.222C268.542 192.698 270.076 193.84 268.89 194.764C268.734 194.885 267.921 194.819 267.873 194.916C267.08 196.687 269.635 196.734 270.501 197.746C271.366 198.759 269.601 200.322 269.093 200.64C267.778 201.471 268.53 200.002 268.401 199.957C266.865 199.428 267.13 200.568 267 201.439C264.494 201.565 264.644 202.783 266.875 202.342C267.119 202.292 266.886 201.614 267 201.439C269.459 202.203 269.774 203.543 267.476 205.022C266.399 205.713 265.143 205.06 265.603 207.162C265.81 208.117 267.535 207.749 268.006 208.591C269.079 210.515 267.47 213.016 267.724 214.999C267.816 215.719 268.76 215.018 268.855 215.51C269.112 216.816 268.404 217.968 268.767 219.28C268.804 219.397 269.789 219.109 269.802 219.516C269.916 222.607 269.283 225.3 269.266 228.528C269.258 230.087 269.803 232.876 269.693 234.491C269.509 237.292 268.072 240.737 268.421 243.129C268.645 244.689 269.634 244.347 270.308 245.016C271.614 246.306 269.273 248.59 268.911 248.898C268.896 248.888 268.662 247.569 268.158 248.281C267.102 248.697 268.907 248.883 268.911 248.898C268.677 249.104 268.453 251.781 268.642 252.314C268.745 252.603 269.682 252.442 269.719 252.592C270.557 256.178 270.796 259.772 270.357 263.409C270.332 263.472 269.29 263.377 269.259 263.528C268.793 265.633 270.075 266.982 270.836 268.718C271.597 270.454 271.342 271.832 269.543 272.86C269.769 274.17 268.974 276.05 268.491 277.132C268.01 278.212 270.044 278.364 270.089 278.459C271.38 281.428 270.212 283.144 270.03 286.224C269.94 287.688 270.237 290.593 270.46 292.178C270.64 293.431 270.161 294.186 270.467 295.34C270.508 295.496 271.416 295.339 271.451 295.387C272.538 296.675 270.318 296.056 269.921 296.322C268.479 297.286 267.71 297.883 268.389 299.532C268.547 299.914 271.742 301.022 271.929 301.715C272.166 302.617 271.02 302.277 271.298 303.221C271.322 303.301 272.027 303.286 271.996 303.868C271.861 306.574 271.45 309.524 271.521 312.335C271.528 312.719 272.649 312.228 272.678 312.782C272.811 315.386 272.769 318.24 272.244 320.777C272.111 321.401 271.326 321.01 271.093 321.146C269.682 321.978 271.731 323.158 271.771 323.353C272.756 327.997 270.901 331.552 271.784 336.286C271.839 336.546 274.032 338.528 272.148 339.412C272.017 339.476 270.098 340.35 271.413 341.122C271.496 341.17 272.489 340.625 272.388 341.577C272.287 342.53 272.949 344.062 271.858 345.37C271.514 345.785 269.592 346.765 271.125 348C271.237 348.083 274.697 349.989 272.307 350.669C271.911 350.779 269.382 350.665 270.68 352.14C270.931 352.421 271.496 351.91 271.849 352.653C272.392 353.79 271.714 355.297 272.842 356.696C273.042 356.94 274.759 357.978 273.455 358.811C273.25 358.94 272.406 358.694 272.312 359.133C271.858 361.224 272.423 363.414 271.838 365.537C271.632 366.289 270.266 365.906 269.9 366.69C269.534 367.474 269.183 369.053 269.807 369.873C270.431 370.694 272.609 369.798 272.783 371.028C273.54 376.372 272.262 381.667 272.075 387.003C272.048 387.794 272.827 387.139 272.842 388.305C272.9 392.606 273.63 400.03 271.975 403.762C270.649 406.751 269.638 402.989 269.099 405.274C268.842 406.376 271.373 407.569 271.453 407.835C272.263 410.435 271.141 412.242 271.485 414.582C271.557 415.065 272.582 414.592 272.632 415.003C272.81 416.408 272.352 417.885 272.436 419.227C272.476 419.829 273.259 419.718 273.199 420.272C273.063 421.598 272.734 422.771 271.999 424.064C271.928 424.177 270.957 423.389 270.921 424.367C270.865 425.955 270.14 427.927 270.889 429.753C271.114 430.295 272.905 430.317 271.668 431.482C271.407 431.725 269.261 431.415 271.117 432.771C271.426 432.999 273.933 435.279 272.317 436.398C271.892 436.693 270.133 437.446 270.408 438.098C270.453 438.186 271.415 437.833 271.509 438.372C271.823 440.276 271.72 442.271 272.021 444.227C272.104 444.748 273.099 443.971 273.19 444.749C273.442 446.889 273.189 449.562 272.877 451.655C272.76 452.426 271.935 451.893 271.846 451.949C270.387 452.852 272.356 453.386 272.471 453.686C273.158 455.549 272.234 456.968 272.479 458.686C272.544 459.159 273.48 458.825 273.566 458.918C274.385 459.897 272.698 459.168 272.512 459.787C271.985 461.523 272.061 463.458 272.181 465.213C272.226 465.857 273.316 465.134 273.344 465.712C273.531 469.136 273.428 472.697 272.827 476.038C272.712 476.667 271.873 476.272 271.682 476.403C270.342 477.307 272.17 478.631 272.344 478.936C273.139 480.322 272.397 480.86 272.535 482.084C273.224 488.063 272.733 495.446 272.43 501.09C272.039 508.445 271.241 514.152 271.448 521.165C271.461 521.61 272.576 521.162 272.602 521.545C272.871 526.506 272.435 531.391 272.757 536.362C272.782 536.769 273.839 536.182 273.914 536.836C274.075 538.179 274.017 539.881 273.68 541.239C273.517 541.9 272.609 541.013 272.464 541.679C272.124 543.231 272.048 544.895 272.218 546.49C272.292 547.168 273.374 546.145 273.387 547.027C273.494 553.034 273.68 558.934 272.279 565.005C272.181 565.421 269.984 565.787 270.405 566.671C271.015 566.738 271.734 566.734 272.386 566.763C272.737 575.508 271.975 584.165 271.857 592.935C271.854 593.304 273.018 592.666 273.015 593.381C272.997 597.524 273.32 601.548 272.162 605.786C272.047 606.206 269.999 605.992 270.309 607.23C270.365 607.449 270.639 609.314 271.084 609.797C271.151 609.863 272.108 609.523 272.136 610.124C272.281 613.619 272.062 617.282 271.478 620.771C271.381 621.333 270.362 620.734 270.285 621.135C269.744 623.98 270.519 627.074 269.594 629.792C268.971 631.611 267.21 630.939 265.477 631.906C265.232 632.043 265.193 633.17 264.185 633.228C261.648 633.377 258.87 632.831 256.167 633.055C255.586 633.103 256.211 634.611 254.805 633.718C254.71 633.653 254.243 632.561 253.767 632.292C253.437 632.105 252.411 632.442 251.988 632.06C251.566 631.677 252.426 631.256 251.93 630.621C251.427 629.987 250.26 630.266 250.122 628.999C249.81 626.058 250.144 622.201 250.603 619.271C250.745 618.352 251.381 618.816 251.508 618.183C251.755 616.943 251.443 615.787 251.737 614.562C251.838 614.156 252.846 614.661 252.929 614.236C253.374 611.902 253.117 609.694 253.331 607.33C254.388 595.686 254.767 584.239 255.226 572.452C255.376 568.566 256.29 563.841 255.891 559.827C255.843 559.359 254.959 559.638 254.886 559.549C253.77 558.151 255.554 558.615 255.792 557.702C256.729 554.079 256.81 550.049 256.469 546.562C256.321 545.078 254.565 546.565 255.551 545.072C255.618 544.968 256.555 545.343 256.656 544.938C256.881 544.015 256.714 542.265 256.788 541.549C256.936 540.171 256.927 539.942 256.938 538.639C256.96 536.857 257.427 534.737 257.215 532.825C257.167 532.417 256.204 532.957 256.04 532.306C255.877 531.654 255.958 529.931 256.185 529.35C256.412 528.769 257.167 529.015 257.342 528.913C258.805 528.068 256.781 526.076 256.729 525.818C255.874 521.141 257.029 517.13 257.025 512.74C257.02 509.407 256.639 505.843 256.691 502.672C256.757 498.894 257.279 495.692 257.189 492.022C257.181 491.634 256.05 492.087 256.037 491.615C255.905 486.589 256.029 481.597 256.793 476.593C256.871 476.091 257.863 476.736 258.001 476.237C258.818 473.166 260.78 468.308 256.453 466.485C256.622 464.405 256.797 461.88 257.669 460.02C258.23 458.821 259.312 459.985 258.851 458.512C258.747 458.18 257.8 458.611 257.717 458.114C257.37 456.015 257.678 453.723 257.188 451.647C257.087 451.224 256.237 451.34 256.084 451.22C254.845 450.215 256.892 448.542 257.042 448.176C258.152 445.398 257.715 443.368 257.742 440.78C257.748 440.18 256.609 440.888 256.573 440.312C256.41 437.314 256.507 434.208 257.014 431.273C257.129 430.62 258.101 431.22 258.206 430.908C258.657 429.533 256.821 429.228 257.218 427.908C257.299 427.631 258.129 427.787 258.223 427.737C259.657 426.943 257.626 426.253 257.579 426.048C256.966 423.464 259.088 421.813 258.788 419.317C258.75 419.018 257.697 419.691 257.654 418.852C257.364 413.26 257.653 407.346 258.495 401.811C258.624 400.953 259.412 401.561 259.513 401.511C261.036 400.629 258.997 400.057 258.918 399.777C258.365 397.563 260.077 395.495 257.646 393.99C258.489 384.615 257.124 375.282 259.302 365.985C259.327 365.866 260.332 366.077 260.379 365.842C260.943 363.002 259.381 363.547 257.47 361.668C256.991 361.196 259.29 359.759 259.466 359.628C260.089 359.164 261.584 359.644 261.706 359.49C262.654 358.203 257.708 358.413 257.705 356.678C257.713 356.624 258.623 356.85 258.715 356.705C258.999 356.253 258.637 355.804 258.95 355.362C259.675 354.348 262.08 353.987 260.681 352.44C260.498 352.244 257.694 352.542 257.825 350.994C257.88 350.377 257.833 347.643 258.015 346.876C258.196 346.113 259.096 346.634 259.14 346.582C260.335 344.521 260.831 345.301 262.601 344.269C264.364 343.236 260.158 343.522 259.688 343.101C259.222 342.679 260.207 341.168 260.55 340.796C260.893 340.425 261.468 340.887 261.662 340.558C262.931 338.369 259.574 339.596 258.906 338.875C257.326 337.175 260.445 335.85 260.751 334.293C260.833 333.872 260.124 334.215 260.057 333.841C259.803 332.355 260.776 331.461 259.884 329.771C259.737 329.494 257.864 328.128 259.239 327.243C259.438 327.118 260.214 327.474 260.389 326.841C260.65 325.895 260.82 324.191 260.561 323.174C260.368 322.424 259.088 323.283 259.485 322.339C259.663 321.919 260.412 322.697 260.684 321.908C260.955 321.124 260.921 319.118 260.896 318.354C260.869 317.592 259.898 318.009 259.832 317.948C259.458 317.575 258.99 316.115 258.99 315.983C258.872 309.463 260.509 303.45 259.967 297.103C259.926 296.605 258.904 296.935 258.885 296.861C258.456 295.156 261.178 296.499 262.091 295.309C260.013 295.481 260.388 294.777 260.16 293.576C260.049 292.998 259.244 293.313 259.161 293.26C257.94 292.402 259.516 291.804 259.841 291.65C261.029 291.081 259.626 290.462 260.42 290.075C261.208 289.689 262.377 290.578 262.362 289.426C261.618 289.103 259.673 289.958 259.357 289.084C258.165 285.784 259.691 279.623 259.85 276.969C260.008 274.321 259.871 273.465 260.14 271.922C260.626 269.135 259.183 270.157 258.522 268.426C257.862 266.691 261.411 267.533 262.176 267.284C262.939 267.039 262.154 266.772 262.573 266.467C262.992 266.164 263.511 266.82 263.669 266.107C263.826 265.392 262.469 263.438 261.671 263.185C259.98 262.649 258.206 263.529 258.829 261.639C258.866 261.53 259.799 261.882 259.894 261.466C260.612 258.159 260.657 254.723 261.293 251.419C261.382 250.965 262.418 251.37 262.483 251.107C263.148 248.353 261.397 249.336 259.451 247.827C262.04 248.166 263.624 247.332 263.64 245.242C263.65 243.986 262.519 244.202 261.722 243.39C261.482 243.146 262.258 242.257 261.727 242.096C259.989 241.565 258.043 242.402 258.817 240.247C258.856 240.154 259.805 240.453 259.863 240.127C260.24 238.016 258.422 237.763 258.202 235.481C258.03 233.692 259.138 230.511 259.318 228.474C262.229 228.517 261.562 226.592 259.556 225.812C259.638 224.49 259.524 223.062 259.802 221.784C259.896 221.345 260.737 221.633 260.83 221.578C262.258 220.728 260.307 220.153 260.229 219.867C259.486 216.775 260.965 214.255 259.519 211.304C259.461 211.199 257.448 211.028 258.921 210.24C259.023 210.189 259.942 211.164 260.014 209.777C260.085 208.388 261.169 205.77 260.232 203.842C260.007 203.376 258.366 202.195 259.647 201.248C259.822 201.122 260.402 201.26 260.725 201.078C261.753 200.49 259.71 200.168 261.445 199.476C263.181 198.784 264.481 197.345 263.283 195.401C263.245 195.338 261.629 194.877 261.654 194.267C261.697 193.291 262.034 191.906 262.023 190.887C262.018 190.4 261.015 190.71 260.994 190.626C260.431 187.346 261.327 185.01 261.716 181.495C261.789 180.851 260.418 178.999 261.502 177.752C262.689 176.383 267.626 177.79 266.45 174.643C265.98 173.373 259.717 171.765 262.961 169.484C262.157 165.058 263.818 160.965 262.67 156.528C262.618 156.328 260.871 155.697 260.895 155.228C260.933 154.532 261.75 154.149 261.804 153.652C262.05 151.568 261.351 149.661 261.46 147.652C261.5 146.889 262.344 147.155 262.392 146.246C262.438 145.337 261.326 144.73 261.862 143.498C262.272 142.568 264.546 141.637 264.812 140.402C262.569 140.354 262.615 139.506 262.022 137.998C261.907 137.709 261.127 138.019 261.032 137.882C260.63 137.324 261.276 136.808 260.839 136.279C260.734 136.15 259.967 136.144 259.838 136.038C258.71 135.143 260.433 133.667 260.733 133.412C261.873 132.441 260.877 131.986 261.325 131.241C261.774 130.498 262.334 131.609 262.606 130.74C263.169 128.939 263.046 126.625 263.081 124.795C263.09 124.066 262.07 124.562 262.046 124.458C261.787 122.949 262.874 121.422 260.837 120.585C266.103 119.539 260.327 119.674 261.381 117.517ZM190.999 628.247C191.367 628.294 191.712 628.562 191.992 628.891L189.521 629.218C190.008 628.968 190.473 628.181 190.999 628.247ZM264.936 628.265C266.075 628.696 266.168 627.076 264.982 627.421C264.935 627.441 264.889 628.242 264.936 628.265ZM325.576 626.281C325.247 625.482 324.357 626.233 325.113 626.673C325.144 626.691 325.588 626.316 325.576 626.281ZM195.626 623.237C194.206 623.698 196.052 625.682 196.591 624.275C196.618 624.201 195.706 623.223 195.626 623.237ZM525.517 264.498C526.279 264.36 525.48 259.551 527.292 262.403C527.419 262.606 527.988 266.101 528.58 266.976C528.994 267.586 530.342 266.527 530.86 267.772C531.376 269.021 530.231 270.341 530.791 272.4C531.35 274.47 532.916 273.61 532.864 277.758C532.745 287.358 530.849 299.795 528.561 309.073C527.852 311.974 527.313 310.342 526.774 312.324C525.714 316.178 525.323 319.944 524.045 323.706C523.616 324.95 522.726 323.067 522.305 324.372C519.995 331.505 518.379 338.403 515.739 345.53C502.72 380.506 483.558 412.341 457.987 439.69C449.566 448.746 437.923 458.199 428.391 466.573C427.28 467.555 428.683 467.885 428.523 468.136C425.954 472.046 425.667 469.318 423.203 470.853C413.407 476.931 402.83 483.879 393.516 489.76C389.93 492.013 393.837 491.945 391.116 492.806L375.059 476.748C377.832 475.434 380.572 473.914 383.134 472.265C384.791 471.191 381.523 471.478 383.72 470.177C398.657 461.23 412.2 450.916 426.406 440.284C427.376 439.556 430.108 440.902 431.616 438.703C431.212 437.999 430.56 437.339 430.037 436.673C448.026 418.723 464.204 399.063 476.466 376.552C476.978 375.606 474.779 376.532 475.757 374.703C481.402 364.065 485.691 353.284 491.194 342.156C491.732 341.048 494.044 342.519 494.824 338.931C494.972 338.301 496.299 332.956 496.131 331.443C496.1 331.236 494.638 331.831 495.098 330.145C497.795 320.308 500.398 310.015 502.736 300.042C503.115 298.429 504.143 300.372 504.423 299.22C506.398 291.052 506.305 281.894 507.884 273.929C508.925 268.614 511.105 270.68 513.432 267.838C513.763 267.433 513.87 264.029 515.168 263.859C518.448 263.422 522.018 265.157 525.517 264.498ZM276.417 0.512939C282.058 0.567622 291.813 2.9306 298.033 4.08325C297.392 7.77696 303.32 7.78642 306.164 5.67017C310.197 6.47473 314.562 7.1947 318.371 8.41626C319.676 8.8354 318.561 9.70027 318.703 9.85278C320.846 12.2293 323.136 10.2005 324.024 10.3176C333.595 11.7247 340.485 15.8367 349.705 17.1594C350.029 17.207 351.43 14.9267 353.08 17.5793C353.177 17.758 349.933 17.8042 353.933 19.4124C357.951 21.0213 364.859 25.3988 370.754 26.843C372.175 27.1792 376.43 26.8611 378.321 29.678C378.569 30.0554 377.85 30.5304 378.164 31.1565C379.175 33.161 381.279 31.2779 382.117 34.26C382.95 37.2456 385.965 40.7651 391.831 42.4602C392.016 42.5165 394.298 41.4412 395.89 42.4583C398.425 44.0746 401.771 46.7411 404.367 48.4768C405.612 49.3072 405.547 47.6962 405.775 47.8215C414.56 52.9388 419.671 58.228 427.603 65.5588C429.049 66.8939 434.534 69.3331 436.396 72.9944C438.402 77.0039 430.979 78.6334 438.771 84.1555C441.843 86.3723 451.209 84.3817 452.757 92.4465C462.52 101.95 468.36 113.227 476.911 123.793C477.295 124.267 480.243 124.698 480.981 125.952C482.072 127.812 481.772 129.366 482.492 130.713C485.476 136.375 489.07 141.094 491.717 146.698C492.715 148.825 491.38 148.571 492.535 151.108C493.674 153.639 495.772 154.731 496.668 158.484C497.336 161.331 495.731 165.07 496.783 168.66C499.524 167.728 500.448 170.154 502.745 174.242C503.186 175.027 503.811 173.789 504.069 174.143C505.141 175.586 504.877 177.366 505.937 178.731C506.193 179.064 507.136 178.767 507.398 179.024C509.68 181.208 508.919 186.279 508.76 187.124C508.206 190.41 509.817 191.396 509.867 193.773C509.905 196.136 508.317 193.022 508.668 195.69C509.391 201.191 511.119 208.054 512.103 213.541C512.502 215.73 513.52 213.998 513.607 214.305C514.792 218.808 514.104 223.653 517.056 225.826C510.732 229.916 518.126 228.496 517.483 235.315C517.424 235.846 514.293 236.814 513.621 234.891C512.948 232.968 513.6 229.857 512.5 227.234C512.247 226.598 508.735 223.391 508.471 222.929C506.452 219.279 511.067 217.925 511.298 217.664C513.701 214.795 509.633 210.909 509.163 209.801C507.038 204.641 506.603 200.018 504.704 195.779C503.461 193.017 500.348 193.605 499.798 191.367C497.918 183.988 501.174 179.908 495.092 174.38C493.773 173.205 491.145 175.87 491.642 169.74C491.681 169.361 492.414 164.589 490.013 163C489.712 162.803 488.796 163.209 488.562 162.882C487.008 160.685 487.015 158.755 485.449 156.318C483.886 153.889 481.852 151.047 480.649 147.996C479.928 146.158 480.373 143.045 480.311 141.983C480.168 138.974 476.854 137.537 477.39 135.299C477.909 133.024 481.718 134.666 480.307 130.269C477.987 131.468 475.501 132.524 473.125 133.659C468.244 125.424 463.579 117.147 457.569 109.585C456.822 108.653 456.467 110.475 455.64 109.504C452.15 105.424 449.9 101.167 445.886 97.2522C442.773 94.2277 438.457 91.8018 435.037 88.8967C435.229 84.8368 429.674 80.8691 426.224 77.4426C425.014 76.2361 425.625 75.7171 424.88 74.717C422.031 70.972 421.94 74.388 420.721 73.8879C415.488 71.8072 418.927 66.8921 413.734 63.0413C413.456 62.8238 408.238 62.8707 407.67 62.7112C404.009 61.6343 407.846 61.4637 406.153 59.9485C403.05 57.2001 401.087 54.9194 396.514 53.0491C395.17 52.5018 391.279 52.3726 389.738 49.6516C389.535 49.2934 390.248 48.4975 390.031 48.2942C386.024 44.7006 384.22 47.508 381.089 47.0217C377.96 46.5398 374.984 42.4029 374.428 41.387C373.005 38.7488 376.443 41.6027 376.637 41.5266C378.956 40.5061 375.791 39.2139 373.532 37.8987C374.654 34.8314 371.242 33.3747 371.179 36.553C371.178 36.9002 373.131 37.5292 373.532 37.8987C370.049 39.703 366.403 38.3687 363.599 33.8577C362.272 31.7546 364.74 31.0181 358.667 29.0803C355.911 28.2273 356.089 30.7105 353.537 30.3391C347.725 29.4989 341.458 25.0634 335.664 23.6174C333.584 23.0992 335.214 24.8784 333.786 24.5696C330.003 23.7658 326.955 21.9606 323.058 21.4456C322.708 21.4024 323.219 22.8496 322.053 22.5706C313.198 20.5052 305.545 18.1519 296.085 16.7854C291.521 16.1048 283.249 15.9482 278.506 15.5149C273.168 14.9932 267.15 13.9558 261.5 13.5129C258.387 13.2651 255.447 13.1921 252.927 13.4387C248.314 13.9031 249.402 15.1542 247.472 16.1243C243.78 17.9945 236.886 15.5871 235.908 15.2336C235.883 15.214 239.8 14.5395 237.63 14.0862C236.269 12.8462 235.953 15.2145 235.908 15.2336C235.274 14.9638 227.319 15.6277 225.804 16.1292C224.976 16.3843 225.624 17.5136 225.191 17.6243C214.861 20.2463 204.689 22.7357 194.234 25.1135C194.047 25.1399 193.95 23.7611 193.511 23.844C187.364 24.9878 184.034 27.826 179.576 30.4368C175.115 33.0629 171.286 34.2318 167.6 33.2346C164.142 34.9603 158.649 36.2864 155.484 37.1077C152.315 37.9256 153.073 40.5084 152.847 40.6741C145.789 46.0629 140.693 47.1399 132.801 51.6604C129.04 53.7949 122.114 58.842 118.518 61.8215C115.669 64.1589 113.521 64.9976 111.074 67.3889C110.745 67.7121 111.829 68.354 111.747 68.4758C109.65 71.8995 109.3 68.5365 108.366 68.6184C104.988 68.936 102.944 69.2923 99.7822 73.1477C99.0413 74.0442 99.308 79.2995 97.9873 80.8293C96.2506 82.8269 95.9767 81.0638 94.1982 83.2131C94.0478 83.3976 94.7043 84.0275 93.4463 85.1682C87.6139 90.4768 81.2714 96.3684 75.9932 102.679C75.2721 103.537 77.303 103.386 76.2861 104.639C71.5151 110.517 66.4362 117.046 61.6689 122.727C60.4923 124.123 60.3069 122.611 59.834 122.765C56.9337 123.75 57.2266 128.118 56.9688 128.614C50.7269 140.644 43.6223 148.618 38.916 161.72C38.6471 162.449 38.9667 168.828 35.7734 170.286C35.5568 170.381 32.2825 171.85 33.0654 174.585C33.118 174.752 34.8751 173.726 33.7744 176.272C32.67 178.834 32.0017 183.275 29.4941 186.476C28.7028 187.481 25.4455 189.504 26.3418 193.544C26.3906 193.835 29.2309 200.333 25.7754 201.47C25.2098 201.654 22.0917 200.528 22.7148 205.137C22.8442 206.014 23.8912 204.726 23.8477 206.939C23.7897 210.324 22.0369 214.461 22.7627 218.72C22.8886 219.471 24.5679 222.782 22.5469 224.906C22.2297 225.238 21.2561 224.366 20.9473 225.609C19.4761 231.536 19.5041 237.982 18.3193 244.087C17.9057 246.264 16.2163 245.022 15.6064 247.309C14.9923 249.603 14.3598 254.232 15.1299 256.682C15.8988 259.116 18.74 256.528 18.9316 260.118C18.9579 260.579 18.9834 261.04 19.0078 261.5C19.8107 276.534 19.6132 291.533 22.1533 306.453C22.5482 308.721 23.1685 306.666 23.8457 309.971C26.1907 322.299 33.4375 342.478 35.7549 353.266C37.5299 361.987 32.0669 352.317 34.0381 358.792C35.0222 361.947 39.4696 363.786 39.8877 364.435C44.0498 370.853 45.1993 376.177 48.9609 381.941C49.7403 383.122 50.2056 381.265 50.8555 382.271C53.0833 385.69 54.8137 389.662 57.0234 392.89C58.0181 394.332 58.6896 393.509 59.5068 394.891C61.4808 398.187 63.073 401.22 64.5225 404.823C64.6562 405.154 62.2662 404.015 63.9238 406.365C66.6095 410.154 69.4485 415.322 73.6436 418.812C74.8956 419.843 76.6766 418.391 77.6982 422.001C77.9174 422.752 75.2237 423.925 79.6709 425.295C80.4206 425.557 87.2644 428.199 88.0596 431.947C88.2646 432.941 88.2146 436.117 89.8418 437.205C90.0669 437.345 90.1941 435.733 91.4102 436.748C95.682 440.332 99.9092 444.345 104.523 447.728C105.756 448.625 104.852 446.189 106.658 447.547C111.617 451.278 117.557 456.231 122.308 460.04C124.057 461.448 122.18 461.435 122.246 461.623C123.342 464.684 126.082 463.451 126.881 463.807C131.872 466.057 134.744 469.245 139.219 471.499C140.452 472.119 140.217 470.58 140.508 470.623C143.485 471.118 140.572 471.958 142.017 473.058C144.113 474.65 146.471 476.095 148.903 477.406L134.872 491.438C134.288 490.993 133.731 490.547 133.207 490.101C130.296 487.612 134.151 488.217 129.877 486.428C128.916 486.017 129.459 487.759 128.061 487.057C122.16 484.087 116.337 479.846 110.639 476.609C109.478 475.952 109.14 477.054 108.717 476.997C105.175 476.462 102.503 471.152 101.728 470.302C95.6882 463.838 90.4988 460.188 84.5146 454.687C83.1334 453.404 83.776 456.001 82.4082 454.798C75.3278 448.532 68.5781 441.366 63.0156 433.963C61.7836 432.313 63.9684 432.919 63.4316 432.09C61.0815 428.45 58.6474 429.227 56.4355 425.672C55.9715 424.924 57.1176 424.638 57.1113 424.44C57.0172 421.354 53.6395 421.265 53.1982 420.784C47.6444 414.787 46.9048 408.954 42.3545 402.67C41.8081 401.912 41.804 404.424 40.3369 402.238C30.5603 387.663 22.4898 370.723 17.3965 354.156C16.604 351.58 18.2359 353.016 18.2959 352.815C19.1758 349.558 16.1173 348.806 15.7285 348.004C12.7475 341.698 13.0224 334.921 8.75293 331.23C3.33226 308.272 -0.712309 284.952 0.326172 261.5C0.582836 255.704 1.14506 250.042 2.07324 244.337C2.12987 243.972 3.38215 244.713 3.49023 243.988C4.87492 235.271 2.75483 236.853 0.938477 230.69C0.487081 229.121 4.03438 225.046 4.31445 224.699C5.3147 223.391 7.01525 225.137 7.23828 224.686C9.02676 220.986 2.59614 220.62 3.52441 215.24C3.56454 215.075 4.59667 215.981 4.79199 215.555C5.40029 214.231 5.19801 212.77 5.8584 211.494C7.39151 208.581 10.6336 208.134 9.93164 203.085C9.84744 202.442 6.07339 202.527 7.39746 197.852C7.89604 195.994 10.113 187.686 11.0684 185.481C11.9906 183.265 12.6266 185.174 12.7256 185.028C16.119 179.367 16.0094 181.885 19.1738 179.596C22.346 177.35 16.936 176.404 16.7949 174.967C16.6502 173.527 19.4782 169.553 20.3135 168.65C21.1404 167.739 21.3169 169.339 21.918 168.482C25.9143 162.836 20.5083 164.728 20.5488 162.325C20.6983 156.621 26.0939 154.434 28.502 150.301C29.1604 149.175 27.873 149.735 28.3018 148.65C30.036 144.352 32.4011 142.474 33.8848 137.328C34.1194 136.493 34.0931 131.564 37.0342 130.082C37.4524 129.878 37.7576 131.332 38.9473 129.761C40.7183 127.414 43.6872 123.056 45.1357 120.251C46.2047 118.175 43.3535 119.487 45.4053 117.326C46.3207 116.373 45.7824 118.91 47.4336 117.083C49.0671 115.257 52.6077 110.18 53.998 108.277C55.3712 106.371 53.6051 106.65 53.6465 106.448C53.9399 105.228 56.2372 101.248 56.4971 100.934C68.9908 84.8231 83.7005 72.987 98.4766 60.0706C99.6431 59.0594 98.0167 58.6752 98.1836 58.51C101.994 54.7645 100.908 60.1135 104.519 58.7815C102.454 56.9897 104.458 56.0215 107.267 53.5647C108.62 52.3834 107.222 52.1265 107.288 51.9436C108.51 49.0819 111.232 49.6567 111.858 49.7249C114.178 49.9619 114.721 47.3858 116.294 47.5569C117.853 47.7321 116.437 50.5074 119.354 48.5198C119.649 47.167 116.049 46.5486 118.082 44.7043C125.738 37.5633 143.594 29.9534 151.164 26.8049C158.693 23.5269 161.11 22.3865 165.665 20.9143C173.939 18.3689 170.333 17.7764 175.122 15.1428C179.974 12.5659 178.948 17.7795 179.994 18.4612C181.018 19.157 181.477 17.9373 182.534 18.1633C183.585 18.3932 181.881 19.6466 184.018 19.1731C186.147 18.684 191.337 15.3267 191.833 14.1331C192.842 11.5928 189.579 10.0816 195.502 9.33521C195.842 9.29605 195.083 10.7395 196.368 10.5315C206.501 8.86055 216.98 6.87948 227.176 6.35571C228.576 6.28692 227.514 7.77938 228.327 7.7561C236.802 7.5915 233.552 5.72007 237.96 2.76099C237.23 6.19886 239.942 7.93508 246.298 7.5647C250.139 7.36473 249.381 5.94993 251.835 4.81958C252.572 4.47783 255.327 5.40204 255.808 4.70923C257.404 2.44429 254.749 -0.0704376 261.5 0.887939C261.503 0.888343 261.506 0.888523 261.509 0.888916C261.613 0.905985 261.563 1.0698 261.5 1.27759C261.417 1.55123 261.311 1.90233 261.5 2.09692C261.575 2.17393 261.696 2.22647 261.883 2.24048C268.451 2.77868 269.266 0.439887 276.417 0.512939ZM260.181 370.106C262.044 371.079 262.241 367.307 260.283 368.135C260.182 368.186 260.088 370.04 260.181 370.106ZM262.703 334.836C263.677 334.797 263.402 333.989 262.503 334.251C262.45 334.269 262.402 334.847 262.703 334.836ZM261.977 283.422C263.116 283.857 263.208 282.238 262.022 282.579C261.975 282.603 261.93 283.398 261.977 283.422ZM268.084 282.069C268.038 282.016 266.381 281.951 266.333 282.002C265.355 283.003 268.942 283.151 268.084 282.069ZM513.621 278.855C512.246 277.461 511.777 282.312 513.376 281.396C513.444 281.354 513.681 278.919 513.621 278.855ZM516.267 255.804C516.235 245.582 521.112 238.749 521.155 250.26C521.139 252.32 519.215 245.905 518.853 248.548C518.187 253.328 521.678 256.45 519.863 261.409C519.54 262.281 516.272 256.372 516.259 255.785C516.261 255.791 516.264 255.798 516.267 255.804ZM2.68652 257.164C5.01089 260.188 5.57867 248.632 2.98926 251.072C2.83814 251.209 2.55415 256.968 2.68652 257.164ZM259.554 225.816C259.477 226.687 259.466 227.565 259.396 228.442C258.25 227.565 258.115 226.515 259.554 225.816ZM505.211 187.077C505.648 185.426 503.375 181.724 502.879 183.791C502.487 185.443 504.677 189.121 505.211 187.077ZM267.733 162.097C268.955 161.173 266.247 160.417 265.767 160.816C264.184 162.125 266.511 163.02 267.733 162.097ZM30.5996 151.16C30.5137 151.177 29.6981 152.753 30.0674 152.887C31.2544 153.311 31.9912 150.941 30.5996 151.16ZM488.636 149.643C487.994 144.749 481.824 147.132 485.203 150.896C485.397 151.115 488.668 149.928 488.636 149.643ZM267.423 147.369C267.361 147.274 264.683 147.148 264.61 147.238C263.364 148.767 268.451 149.008 267.423 147.369ZM264.314 135.023C265.003 134.545 264.209 133.168 263.353 133.763C262.665 134.241 263.459 135.615 264.314 135.023ZM466.302 115.259C465.651 110.842 461.602 110.49 461.988 113.648C462.345 116.783 466.488 116.591 466.302 115.259ZM260.558 109.03C260.816 108.743 263.311 110.666 263.3 110.867C263.298 110.865 263.296 110.864 263.294 110.862C263.102 114.245 258.898 116.296 259.372 112.613C259.458 111.946 260.712 114.049 261.092 113.201C261.782 111.647 259.144 110.615 260.558 109.03ZM141.264 41.2278C138.007 41.5786 139.897 45.8342 142.177 43.3069C142.285 43.1803 141.43 41.2078 141.264 41.2278ZM137.04 37.1995C136.953 37.1746 134.774 38.3337 134.754 38.4182C134.325 40.3488 138.689 38.0254 137.04 37.1995ZM298.117 4.19653C301.008 3.10542 304.33 3.46026 306.152 5.66626C303.499 5.10601 300.788 4.66512 298.117 4.19653Z" fill="black"/>
</svg>
